<svg width="35" height="24" viewBox="0 0 35 24" fill="none" xmlns="http://www.w3.org/2000/svg">
<path d="M14 19.5621C6.4 17.9621 2.16667 12.8954 1 10.5621C1.16667 9.89541 1.9 8.26207 3.5 7.06207C5.5 5.56207 11.5 1.06207 17 1.06207C22.5 1.06207 30.5 5.56207 32.5 8.06207C34.5 10.5621 34 12.0621 33 13.5621C32 15.0621 23.5 21.5621 14 19.5621Z" fill="#E1DFCF"/>
<path d="M1 10.5621C2.5 7.72872 6.9 1.86207 16.5 1.06207C26.1 0.262073 32.8333 7.39539 34.5 11.0621" stroke="black"/>
<path d="M34.5 11.0621C33 13.8954 29.1 19.2621 19.5 20.0621C9.9 20.8621 2.66667 14.2287 1 10.5621" stroke="black"/>
<path d="M1.64645 15.6464C1.45118 15.8417 1.45118 16.1583 1.64645 16.3536C1.84171 16.5488 2.15829 16.5488 2.35355 16.3536L1.64645 15.6464ZM3.64645 13.6464L1.64645 15.6464L2.35355 16.3536L4.35355 14.3536L3.64645 13.6464Z" fill="black"/>
<path d="M5.77659 18.8259C5.59724 19.0359 5.62205 19.3515 5.83202 19.5308C6.04199 19.7102 6.3576 19.6854 6.53695 19.4754L5.77659 18.8259ZM7.61367 16.6753L5.77659 18.8259L6.53695 19.4754L8.37403 17.3248L7.61367 16.6753Z" fill="black"/>
<path d="M9.96343 21.0821C9.8322 21.3251 9.9228 21.6284 10.1658 21.7596C10.4087 21.8908 10.7121 21.8003 10.8433 21.5573L9.96343 21.0821ZM11.3075 18.5934L9.96343 21.0821L10.8433 21.5573L12.1874 19.0686L11.3075 18.5934Z" fill="black"/>
<path d="M14.8552 22.8054C14.8438 23.0813 15.0582 23.3142 15.3341 23.3256C15.61 23.337 15.8429 23.1225 15.8543 22.8466L14.8552 22.8054ZM14.9717 19.9794L14.8552 22.8054L15.8543 22.8466L15.9709 20.0206L14.9717 19.9794Z" fill="black"/>
<path d="M20.0079 22.8573C20.0262 23.1328 20.2644 23.3414 20.5399 23.3231C20.8155 23.3048 21.024 23.0666 21.0057 22.791L20.0079 22.8573ZM19.8204 20.0351L20.0079 22.8573L21.0057 22.791L20.8182 19.9688L19.8204 20.0351Z" fill="black"/>
<path d="M25.4725 21.9099C25.5751 22.1662 25.8661 22.2908 26.1225 22.1882C26.3788 22.0856 26.5035 21.7946 26.4008 21.5382L25.4725 21.9099ZM24.4213 19.284L25.4725 21.9099L26.4008 21.5382L25.3497 18.9124L24.4213 19.284Z" fill="black"/>
<path d="M29.7827 19.7375C29.9517 19.9559 30.2657 19.996 30.4842 19.827C30.7026 19.658 30.7427 19.344 30.5737 19.1256L29.7827 19.7375ZM28.0522 17.5003L29.7827 19.7375L30.5737 19.1256L28.8431 16.8884L28.0522 17.5003Z" fill="black"/>
<path d="M33.9088 16.3787C34.1254 16.5499 34.4399 16.5131 34.6111 16.2965C34.7824 16.0798 34.7456 15.7654 34.5289 15.5942L33.9088 16.3787ZM31.6899 14.6248L33.9088 16.3787L34.5289 15.5942L32.31 13.8402L31.6899 14.6248Z" fill="black"/>
</svg>
