<svg width="35" height="22" viewBox="0 0 35 22" fill="none" xmlns="http://www.w3.org/2000/svg">
<path d="M14 20C6.4 18.4 2.16667 13.3333 1 11C1.16667 10.3333 1.9 8.7 3.5 7.5C5.5 6 11.5 1.5 17 1.5C22.5 1.5 30.5 6 32.5 8.5C34.5 11 34 12.5 33 14C32 15.5 23.5 22 14 20Z" fill="#E1DFCF"/>
<circle cx="18" cy="11" r="6.5" fill="#A6A6D6" stroke="black"/>
<path d="M1 11C2.5 8.16665 6.9 2.3 16.5 1.5C26.1 0.7 32.8333 7.83332 34.5 11.5" stroke="black"/>
<path d="M34.5 11.5C33 14.3333 29.1 19.7 19.5 20.5C9.9 21.3 2.66667 14.6667 1 11" stroke="black"/>
<circle cx="18" cy="11" r="2.7" fill="#6B6AAF" stroke="black" stroke-width="0.6"/>
</svg>
